<mxfile host="app.diagrams.net" agent="Mozilla/5.0 (Windows NT 10.0; Win64; x64) AppleWebKit/537.36 (KHTML, like Gecko) Chrome/133.0.0.0 Safari/537.36 Edg/133.0.0.0" version="26.1.0">
  <diagram id="sequence-diagram" name="Page-1">
    <mxGraphModel dx="1725" dy="479" grid="1" gridSize="10" guides="1" tooltips="1" connect="1" arrows="1" fold="1" page="1" pageScale="1" pageWidth="827" pageHeight="1169" math="0" shadow="0">
      <root>
        <mxCell id="0" />
        <mxCell id="1" parent="0" />
        <mxCell id="l3XtTcIofVnENhLU9X-6-130" value="frame" style="shape=umlFrame;whiteSpace=wrap;html=1;pointerEvents=0;swimlaneFillColor=default;" vertex="1" parent="1">
          <mxGeometry x="-30" y="10" width="1550" height="1480" as="geometry" />
        </mxCell>
        <mxCell id="l3XtTcIofVnENhLU9X-6-19" value=":AttendanceViewer" style="shape=umlLifeline;perimeter=lifelinePerimeter;whiteSpace=wrap;html=1;container=1;dropTarget=0;collapsible=0;recursiveResize=0;outlineConnect=0;portConstraint=eastwest;newEdgeStyle={&quot;curved&quot;:0,&quot;rounded&quot;:0};size=40;" vertex="1" parent="1">
          <mxGeometry x="280" y="80" width="120" height="1370" as="geometry" />
        </mxCell>
        <mxCell id="l3XtTcIofVnENhLU9X-6-28" value="" style="html=1;points=[[0,0,0,0,5],[0,1,0,0,-5],[1,0,0,0,5],[1,1,0,0,-5]];perimeter=orthogonalPerimeter;outlineConnect=0;targetShapes=umlLifeline;portConstraint=eastwest;newEdgeStyle={&quot;curved&quot;:0,&quot;rounded&quot;:0};" vertex="1" parent="l3XtTcIofVnENhLU9X-6-19">
          <mxGeometry x="55" y="100" width="10" height="50" as="geometry" />
        </mxCell>
        <mxCell id="l3XtTcIofVnENhLU9X-6-85" value="" style="html=1;points=[[0,0,0,0,5],[0,1,0,0,-5],[1,0,0,0,5],[1,1,0,0,-5]];perimeter=orthogonalPerimeter;outlineConnect=0;targetShapes=umlLifeline;portConstraint=eastwest;newEdgeStyle={&quot;curved&quot;:0,&quot;rounded&quot;:0};" vertex="1" parent="l3XtTcIofVnENhLU9X-6-19">
          <mxGeometry x="55" y="810" width="10" height="100" as="geometry" />
        </mxCell>
        <mxCell id="l3XtTcIofVnENhLU9X-6-20" value=":AttendanceController" style="shape=umlLifeline;perimeter=lifelinePerimeter;whiteSpace=wrap;html=1;container=1;dropTarget=0;collapsible=0;recursiveResize=0;outlineConnect=0;portConstraint=eastwest;newEdgeStyle={&quot;curved&quot;:0,&quot;rounded&quot;:0};size=40;" vertex="1" parent="1">
          <mxGeometry x="480" y="80" width="120" height="1380" as="geometry" />
        </mxCell>
        <mxCell id="l3XtTcIofVnENhLU9X-6-32" value="" style="html=1;points=[[0,0,0,0,5],[0,1,0,0,-5],[1,0,0,0,5],[1,1,0,0,-5]];perimeter=orthogonalPerimeter;outlineConnect=0;targetShapes=umlLifeline;portConstraint=eastwest;newEdgeStyle={&quot;curved&quot;:0,&quot;rounded&quot;:0};" vertex="1" parent="l3XtTcIofVnENhLU9X-6-20">
          <mxGeometry x="55" y="100" width="10" height="50" as="geometry" />
        </mxCell>
        <mxCell id="l3XtTcIofVnENhLU9X-6-73" value="" style="html=1;points=[[0,0,0,0,5],[0,1,0,0,-5],[1,0,0,0,5],[1,1,0,0,-5]];perimeter=orthogonalPerimeter;outlineConnect=0;targetShapes=umlLifeline;portConstraint=eastwest;newEdgeStyle={&quot;curved&quot;:0,&quot;rounded&quot;:0};" vertex="1" parent="l3XtTcIofVnENhLU9X-6-20">
          <mxGeometry x="55" y="740" width="10" height="170" as="geometry" />
        </mxCell>
        <mxCell id="l3XtTcIofVnENhLU9X-6-21" value=":FaceRecognitionService" style="shape=umlLifeline;perimeter=lifelinePerimeter;whiteSpace=wrap;html=1;container=1;dropTarget=0;collapsible=0;recursiveResize=0;outlineConnect=0;portConstraint=eastwest;newEdgeStyle={&quot;curved&quot;:0,&quot;rounded&quot;:0};size=40;" vertex="1" parent="1">
          <mxGeometry x="880" y="80" width="150" height="540" as="geometry" />
        </mxCell>
        <mxCell id="l3XtTcIofVnENhLU9X-6-22" value=":GPSValidationService" style="shape=umlLifeline;perimeter=lifelinePerimeter;whiteSpace=wrap;html=1;container=1;dropTarget=0;collapsible=0;recursiveResize=0;outlineConnect=0;portConstraint=eastwest;newEdgeStyle={&quot;curved&quot;:0,&quot;rounded&quot;:0};size=40;" vertex="1" parent="1">
          <mxGeometry x="1110" y="80" width="150" height="1200" as="geometry" />
        </mxCell>
        <mxCell id="l3XtTcIofVnENhLU9X-6-23" value=":Attendance" style="shape=umlLifeline;perimeter=lifelinePerimeter;whiteSpace=wrap;html=1;container=1;dropTarget=0;collapsible=0;recursiveResize=0;outlineConnect=0;portConstraint=eastwest;newEdgeStyle={&quot;curved&quot;:0,&quot;rounded&quot;:0};size=40;" vertex="1" parent="1">
          <mxGeometry x="680" y="80" width="120" height="970" as="geometry" />
        </mxCell>
        <mxCell id="l3XtTcIofVnENhLU9X-6-34" value="" style="html=1;points=[[0,0,0,0,5],[0,1,0,0,-5],[1,0,0,0,5],[1,1,0,0,-5]];perimeter=orthogonalPerimeter;outlineConnect=0;targetShapes=umlLifeline;portConstraint=eastwest;newEdgeStyle={&quot;curved&quot;:0,&quot;rounded&quot;:0};" vertex="1" parent="l3XtTcIofVnENhLU9X-6-23">
          <mxGeometry x="55" y="100" width="10" height="50" as="geometry" />
        </mxCell>
        <mxCell id="l3XtTcIofVnENhLU9X-6-72" value="" style="html=1;points=[[0,0,0,0,5],[0,1,0,0,-5],[1,0,0,0,5],[1,1,0,0,-5]];perimeter=orthogonalPerimeter;outlineConnect=0;targetShapes=umlLifeline;portConstraint=eastwest;newEdgeStyle={&quot;curved&quot;:0,&quot;rounded&quot;:0};" vertex="1" parent="l3XtTcIofVnENhLU9X-6-23">
          <mxGeometry x="55" y="740" width="10" height="170" as="geometry" />
        </mxCell>
        <mxCell id="l3XtTcIofVnENhLU9X-6-24" value="" style="shape=umlLifeline;perimeter=lifelinePerimeter;whiteSpace=wrap;html=1;container=1;dropTarget=0;collapsible=0;recursiveResize=0;outlineConnect=0;portConstraint=eastwest;newEdgeStyle={&quot;curved&quot;:0,&quot;rounded&quot;:0};participant=umlActor;size=70;" vertex="1" parent="1">
          <mxGeometry x="130" y="80" width="40" height="810" as="geometry" />
        </mxCell>
        <mxCell id="l3XtTcIofVnENhLU9X-6-27" value="" style="html=1;points=[[0,0,0,0,5],[0,1,0,0,-5],[1,0,0,0,5],[1,1,0,0,-5]];perimeter=orthogonalPerimeter;outlineConnect=0;targetShapes=umlLifeline;portConstraint=eastwest;newEdgeStyle={&quot;curved&quot;:0,&quot;rounded&quot;:0};" vertex="1" parent="l3XtTcIofVnENhLU9X-6-24">
          <mxGeometry x="15" y="100" width="10" height="670" as="geometry" />
        </mxCell>
        <mxCell id="l3XtTcIofVnENhLU9X-6-25" value="Sinh viÃªn" style="text;html=1;align=center;verticalAlign=middle;resizable=0;points=[];autosize=1;strokeColor=none;fillColor=none;" vertex="1" parent="1">
          <mxGeometry x="115" y="50" width="70" height="30" as="geometry" />
        </mxCell>
        <mxCell id="l3XtTcIofVnENhLU9X-6-29" value="" style="edgeStyle=elbowEdgeStyle;fontSize=12;html=1;endArrow=blockThin;endFill=1;rounded=0;" edge="1" parent="1" source="l3XtTcIofVnENhLU9X-6-27">
          <mxGeometry width="160" relative="1" as="geometry">
            <mxPoint x="160" y="183" as="sourcePoint" />
            <mxPoint x="335" y="183" as="targetPoint" />
            <Array as="points">
              <mxPoint x="270" y="183" />
            </Array>
          </mxGeometry>
        </mxCell>
        <mxCell id="l3XtTcIofVnENhLU9X-6-37" value="1. faceAttendance()" style="edgeLabel;html=1;align=center;verticalAlign=middle;resizable=0;points=[];" vertex="1" connectable="0" parent="l3XtTcIofVnENhLU9X-6-29">
          <mxGeometry x="0.1444" y="1" relative="1" as="geometry">
            <mxPoint x="-14" y="-7" as="offset" />
          </mxGeometry>
        </mxCell>
        <mxCell id="l3XtTcIofVnENhLU9X-6-33" value="" style="edgeStyle=elbowEdgeStyle;fontSize=12;html=1;endArrow=blockThin;endFill=1;rounded=0;" edge="1" parent="1" source="l3XtTcIofVnENhLU9X-6-28">
          <mxGeometry width="160" relative="1" as="geometry">
            <mxPoint x="350" y="183" as="sourcePoint" />
            <mxPoint x="535" y="183" as="targetPoint" />
            <Array as="points">
              <mxPoint x="460" y="183" />
            </Array>
          </mxGeometry>
        </mxCell>
        <mxCell id="l3XtTcIofVnENhLU9X-6-35" value="" style="edgeStyle=elbowEdgeStyle;fontSize=12;html=1;endArrow=blockThin;endFill=1;rounded=0;" edge="1" parent="1" source="l3XtTcIofVnENhLU9X-6-32">
          <mxGeometry width="160" relative="1" as="geometry">
            <mxPoint x="540" y="183" as="sourcePoint" />
            <mxPoint x="735" y="183" as="targetPoint" />
            <Array as="points">
              <mxPoint x="660" y="183" />
            </Array>
          </mxGeometry>
        </mxCell>
        <mxCell id="l3XtTcIofVnENhLU9X-6-38" value="2. faceAttendanceRequest()" style="edgeLabel;html=1;align=center;verticalAlign=middle;resizable=0;points=[];" vertex="1" connectable="0" parent="1">
          <mxGeometry x="440.002962962963" y="175.00000000000006" as="geometry" />
        </mxCell>
        <mxCell id="l3XtTcIofVnENhLU9X-6-39" value="3. faceAttendanceRecord()" style="edgeLabel;html=1;align=center;verticalAlign=middle;resizable=0;points=[];" vertex="1" connectable="0" parent="1">
          <mxGeometry x="638.002962962963" y="175.00000000000006" as="geometry" />
        </mxCell>
        <mxCell id="l3XtTcIofVnENhLU9X-6-40" value="4. confirmRecordCreated()" style="html=1;verticalAlign=bottom;endArrow=open;dashed=1;endSize=8;curved=0;rounded=0;" edge="1" parent="1" source="l3XtTcIofVnENhLU9X-6-34">
          <mxGeometry relative="1" as="geometry">
            <mxPoint x="625" y="223" as="sourcePoint" />
            <mxPoint x="545" y="223" as="targetPoint" />
          </mxGeometry>
        </mxCell>
        <mxCell id="l3XtTcIofVnENhLU9X-6-41" value="5. showFaceAttendanceUI()" style="html=1;verticalAlign=bottom;endArrow=open;dashed=1;endSize=8;curved=0;rounded=0;" edge="1" parent="1">
          <mxGeometry relative="1" as="geometry">
            <mxPoint x="535" y="223.78" as="sourcePoint" />
            <mxPoint x="345" y="223.78" as="targetPoint" />
          </mxGeometry>
        </mxCell>
        <mxCell id="l3XtTcIofVnENhLU9X-6-42" value="&lt;b&gt;alt&lt;/b&gt;" style="shape=umlFrame;whiteSpace=wrap;html=1;pointerEvents=0;" vertex="1" parent="1">
          <mxGeometry x="110" y="340" width="920" height="170" as="geometry" />
        </mxCell>
        <mxCell id="l3XtTcIofVnENhLU9X-6-44" value="" style="html=1;points=[[0,0,0,0,5],[0,1,0,0,-5],[1,0,0,0,5],[1,1,0,0,-5]];perimeter=orthogonalPerimeter;outlineConnect=0;targetShapes=umlLifeline;portConstraint=eastwest;newEdgeStyle={&quot;curved&quot;:0,&quot;rounded&quot;:0};" vertex="1" parent="1">
          <mxGeometry x="950" y="280" width="10" height="200" as="geometry" />
        </mxCell>
        <mxCell id="l3XtTcIofVnENhLU9X-6-45" value="" style="edgeStyle=elbowEdgeStyle;fontSize=12;html=1;endArrow=blockThin;endFill=1;rounded=0;" edge="1" parent="1" target="l3XtTcIofVnENhLU9X-6-44">
          <mxGeometry width="160" relative="1" as="geometry">
            <mxPoint x="545" y="287" as="sourcePoint" />
            <mxPoint x="735" y="287" as="targetPoint" />
            <Array as="points">
              <mxPoint x="660" y="287" />
            </Array>
          </mxGeometry>
        </mxCell>
        <mxCell id="l3XtTcIofVnENhLU9X-6-46" value="5. verifyFace()" style="edgeLabel;html=1;align=center;verticalAlign=middle;resizable=0;points=[];" vertex="1" connectable="0" parent="l3XtTcIofVnENhLU9X-6-45">
          <mxGeometry x="-0.2328" y="-1" relative="1" as="geometry">
            <mxPoint x="79" y="-11" as="offset" />
          </mxGeometry>
        </mxCell>
        <mxCell id="l3XtTcIofVnENhLU9X-6-47" value="6. faceVerified()" style="html=1;verticalAlign=bottom;endArrow=open;dashed=1;endSize=8;curved=0;rounded=0;" edge="1" parent="1" source="l3XtTcIofVnENhLU9X-6-44">
          <mxGeometry relative="1" as="geometry">
            <mxPoint x="735" y="374.62" as="sourcePoint" />
            <mxPoint x="545" y="374.62" as="targetPoint" />
          </mxGeometry>
        </mxCell>
        <mxCell id="l3XtTcIofVnENhLU9X-6-48" value="" style="html=1;points=[[0,0,0,0,5],[0,1,0,0,-5],[1,0,0,0,5],[1,1,0,0,-5]];perimeter=orthogonalPerimeter;outlineConnect=0;targetShapes=umlLifeline;portConstraint=eastwest;newEdgeStyle={&quot;curved&quot;:0,&quot;rounded&quot;:0};" vertex="1" parent="1">
          <mxGeometry x="335" y="280" width="10" height="490" as="geometry" />
        </mxCell>
        <mxCell id="l3XtTcIofVnENhLU9X-6-49" value="7.&amp;nbsp;showFaceRecognitionSuccess()" style="html=1;verticalAlign=bottom;endArrow=open;dashed=1;endSize=8;curved=0;rounded=0;" edge="1" parent="1" target="l3XtTcIofVnENhLU9X-6-48">
          <mxGeometry relative="1" as="geometry">
            <mxPoint x="535" y="375.04" as="sourcePoint" />
            <mxPoint x="130" y="374.66" as="targetPoint" />
          </mxGeometry>
        </mxCell>
        <mxCell id="l3XtTcIofVnENhLU9X-6-51" value="" style="html=1;points=[[0,0,0,0,5],[0,1,0,0,-5],[1,0,0,0,5],[1,1,0,0,-5]];perimeter=orthogonalPerimeter;outlineConnect=0;targetShapes=umlLifeline;portConstraint=eastwest;newEdgeStyle={&quot;curved&quot;:0,&quot;rounded&quot;:0};" vertex="1" parent="1">
          <mxGeometry x="535" y="280" width="10" height="490" as="geometry" />
        </mxCell>
        <mxCell id="l3XtTcIofVnENhLU9X-6-52" value="8. faceNotRecognized()" style="html=1;verticalAlign=bottom;endArrow=open;dashed=1;endSize=8;curved=0;rounded=0;" edge="1" parent="1">
          <mxGeometry relative="1" as="geometry">
            <mxPoint x="950" y="467.38" as="sourcePoint" />
            <mxPoint x="545" y="467" as="targetPoint" />
          </mxGeometry>
        </mxCell>
        <mxCell id="l3XtTcIofVnENhLU9X-6-54" value="9. showFaceRecognitionFailure()" style="html=1;verticalAlign=bottom;endArrow=open;dashed=1;endSize=8;curved=0;rounded=0;" edge="1" parent="1">
          <mxGeometry relative="1" as="geometry">
            <mxPoint x="535" y="470.04" as="sourcePoint" />
            <mxPoint x="345" y="470" as="targetPoint" />
          </mxGeometry>
        </mxCell>
        <mxCell id="l3XtTcIofVnENhLU9X-6-55" value="" style="edgeStyle=elbowEdgeStyle;fontSize=12;html=1;endArrow=blockThin;endFill=1;rounded=0;" edge="1" parent="1">
          <mxGeometry width="160" relative="1" as="geometry">
            <mxPoint x="155" y="290" as="sourcePoint" />
            <mxPoint x="335" y="290" as="targetPoint" />
            <Array as="points">
              <mxPoint x="270" y="290" />
            </Array>
          </mxGeometry>
        </mxCell>
        <mxCell id="l3XtTcIofVnENhLU9X-6-56" value="6. scanFace()" style="edgeLabel;html=1;align=center;verticalAlign=middle;resizable=0;points=[];" vertex="1" connectable="0" parent="l3XtTcIofVnENhLU9X-6-55">
          <mxGeometry x="0.1444" y="1" relative="1" as="geometry">
            <mxPoint x="-14" y="-7" as="offset" />
          </mxGeometry>
        </mxCell>
        <mxCell id="l3XtTcIofVnENhLU9X-6-57" value="" style="edgeStyle=elbowEdgeStyle;fontSize=12;html=1;endArrow=blockThin;endFill=1;rounded=0;" edge="1" parent="1" target="l3XtTcIofVnENhLU9X-6-51">
          <mxGeometry width="160" relative="1" as="geometry">
            <mxPoint x="345" y="290" as="sourcePoint" />
            <mxPoint x="530" y="290" as="targetPoint" />
            <Array as="points">
              <mxPoint x="460" y="290" />
            </Array>
          </mxGeometry>
        </mxCell>
        <mxCell id="l3XtTcIofVnENhLU9X-6-58" value="sendFaceRequest()" style="edgeLabel;html=1;align=center;verticalAlign=middle;resizable=0;points=[];" vertex="1" connectable="0" parent="l3XtTcIofVnENhLU9X-6-57">
          <mxGeometry x="0.1444" y="1" relative="1" as="geometry">
            <mxPoint x="-14" y="-7" as="offset" />
          </mxGeometry>
        </mxCell>
        <mxCell id="l3XtTcIofVnENhLU9X-6-59" value="&lt;b&gt;loop&lt;/b&gt;" style="shape=umlFrame;whiteSpace=wrap;html=1;pointerEvents=0;" vertex="1" parent="1">
          <mxGeometry x="50" y="250" width="1230" height="540" as="geometry" />
        </mxCell>
        <mxCell id="l3XtTcIofVnENhLU9X-6-60" value="&lt;b&gt;alt&lt;/b&gt;" style="shape=umlFrame;whiteSpace=wrap;html=1;pointerEvents=0;" vertex="1" parent="1">
          <mxGeometry x="110" y="570" width="1130" height="170" as="geometry" />
        </mxCell>
        <mxCell id="l3XtTcIofVnENhLU9X-6-61" value="" style="html=1;points=[[0,0,0,0,5],[0,1,0,0,-5],[1,0,0,0,5],[1,1,0,0,-5]];perimeter=orthogonalPerimeter;outlineConnect=0;targetShapes=umlLifeline;portConstraint=eastwest;newEdgeStyle={&quot;curved&quot;:0,&quot;rounded&quot;:0};" vertex="1" parent="1">
          <mxGeometry x="1180" y="280" width="10" height="440" as="geometry" />
        </mxCell>
        <mxCell id="l3XtTcIofVnENhLU9X-6-62" value="" style="edgeStyle=elbowEdgeStyle;fontSize=12;html=1;endArrow=blockThin;endFill=1;rounded=0;" edge="1" parent="1" target="l3XtTcIofVnENhLU9X-6-61">
          <mxGeometry width="160" relative="1" as="geometry">
            <mxPoint x="545" y="320" as="sourcePoint" />
            <mxPoint x="950" y="320" as="targetPoint" />
            <Array as="points">
              <mxPoint x="660" y="320" />
            </Array>
          </mxGeometry>
        </mxCell>
        <mxCell id="l3XtTcIofVnENhLU9X-6-63" value="6. checkLocation()" style="edgeLabel;html=1;align=center;verticalAlign=middle;resizable=0;points=[];" vertex="1" connectable="0" parent="l3XtTcIofVnENhLU9X-6-62">
          <mxGeometry x="-0.2328" y="-1" relative="1" as="geometry">
            <mxPoint x="79" y="-11" as="offset" />
          </mxGeometry>
        </mxCell>
        <mxCell id="l3XtTcIofVnENhLU9X-6-64" value="locationVerified()" style="html=1;verticalAlign=bottom;endArrow=open;dashed=1;endSize=8;curved=0;rounded=0;" edge="1" parent="1" source="l3XtTcIofVnENhLU9X-6-61">
          <mxGeometry relative="1" as="geometry">
            <mxPoint x="950" y="610.38" as="sourcePoint" />
            <mxPoint x="545" y="610" as="targetPoint" />
          </mxGeometry>
        </mxCell>
        <mxCell id="l3XtTcIofVnENhLU9X-6-65" value="showValidLocation()" style="html=1;verticalAlign=bottom;endArrow=open;dashed=1;endSize=8;curved=0;rounded=0;" edge="1" parent="1">
          <mxGeometry relative="1" as="geometry">
            <mxPoint x="535" y="610.04" as="sourcePoint" />
            <mxPoint x="345" y="610" as="targetPoint" />
          </mxGeometry>
        </mxCell>
        <mxCell id="l3XtTcIofVnENhLU9X-6-66" value="" style="html=1;verticalAlign=bottom;endArrow=none;dashed=1;endSize=8;curved=0;rounded=0;startFill=0;" edge="1" parent="1">
          <mxGeometry relative="1" as="geometry">
            <mxPoint x="1240" y="652" as="sourcePoint" />
            <mxPoint x="109" y="652" as="targetPoint" />
          </mxGeometry>
        </mxCell>
        <mxCell id="l3XtTcIofVnENhLU9X-6-67" value="showInvalidLocation()" style="html=1;verticalAlign=bottom;endArrow=open;dashed=1;endSize=8;curved=0;rounded=0;" edge="1" parent="1">
          <mxGeometry relative="1" as="geometry">
            <mxPoint x="535" y="700.04" as="sourcePoint" />
            <mxPoint x="345" y="700" as="targetPoint" />
          </mxGeometry>
        </mxCell>
        <mxCell id="l3XtTcIofVnENhLU9X-6-68" value="" style="html=1;verticalAlign=bottom;endArrow=none;dashed=1;endSize=8;curved=0;rounded=0;startFill=0;exitX=1;exitY=0.495;exitDx=0;exitDy=0;exitPerimeter=0;" edge="1" parent="1" source="l3XtTcIofVnENhLU9X-6-42">
          <mxGeometry relative="1" as="geometry">
            <mxPoint x="1240" y="424.62" as="sourcePoint" />
            <mxPoint x="109" y="424.62" as="targetPoint" />
          </mxGeometry>
        </mxCell>
        <mxCell id="l3XtTcIofVnENhLU9X-6-69" value="locationInvalid()" style="html=1;verticalAlign=bottom;endArrow=open;dashed=1;endSize=8;curved=0;rounded=0;" edge="1" parent="1">
          <mxGeometry relative="1" as="geometry">
            <mxPoint x="1180" y="700" as="sourcePoint" />
            <mxPoint x="545" y="700" as="targetPoint" />
          </mxGeometry>
        </mxCell>
        <mxCell id="l3XtTcIofVnENhLU9X-6-70" value=":AttendanceDB" style="shape=umlLifeline;perimeter=lifelinePerimeter;whiteSpace=wrap;html=1;container=1;dropTarget=0;collapsible=0;recursiveResize=0;outlineConnect=0;portConstraint=eastwest;newEdgeStyle={&quot;curved&quot;:0,&quot;rounded&quot;:0};size=40;" vertex="1" parent="1">
          <mxGeometry x="1350" y="80" width="120" height="1225" as="geometry" />
        </mxCell>
        <mxCell id="l3XtTcIofVnENhLU9X-6-71" value="" style="html=1;points=[[0,0,0,0,5],[0,1,0,0,-5],[1,0,0,0,5],[1,1,0,0,-5]];perimeter=orthogonalPerimeter;outlineConnect=0;targetShapes=umlLifeline;portConstraint=eastwest;newEdgeStyle={&quot;curved&quot;:0,&quot;rounded&quot;:0};" vertex="1" parent="l3XtTcIofVnENhLU9X-6-70">
          <mxGeometry x="55" y="740" width="10" height="170" as="geometry" />
        </mxCell>
        <mxCell id="l3XtTcIofVnENhLU9X-6-74" value="" style="edgeStyle=elbowEdgeStyle;fontSize=12;html=1;endArrow=blockThin;endFill=1;rounded=0;" edge="1" parent="1">
          <mxGeometry width="160" relative="1" as="geometry">
            <mxPoint x="545" y="823" as="sourcePoint" />
            <mxPoint x="735" y="823" as="targetPoint" />
            <Array as="points">
              <mxPoint x="660" y="823" />
            </Array>
          </mxGeometry>
        </mxCell>
        <mxCell id="l3XtTcIofVnENhLU9X-6-75" value="updateAttendanceStatus()" style="edgeLabel;html=1;align=center;verticalAlign=middle;resizable=0;points=[];" vertex="1" connectable="0" parent="l3XtTcIofVnENhLU9X-6-74">
          <mxGeometry x="-0.047" y="1" relative="1" as="geometry">
            <mxPoint x="2" y="-7" as="offset" />
          </mxGeometry>
        </mxCell>
        <mxCell id="l3XtTcIofVnENhLU9X-6-80" value="" style="edgeStyle=elbowEdgeStyle;fontSize=12;html=1;endArrow=blockThin;endFill=1;rounded=0;startFill=0;" edge="1" parent="1">
          <mxGeometry width="160" relative="1" as="geometry">
            <mxPoint x="745" y="823" as="sourcePoint" />
            <mxPoint x="1405" y="823" as="targetPoint" />
            <Array as="points">
              <mxPoint x="1405" y="823" />
              <mxPoint x="1400" y="823" />
            </Array>
          </mxGeometry>
        </mxCell>
        <mxCell id="l3XtTcIofVnENhLU9X-6-81" value="saveAttendanceData()" style="edgeLabel;html=1;align=center;verticalAlign=middle;resizable=0;points=[];" vertex="1" connectable="0" parent="l3XtTcIofVnENhLU9X-6-80">
          <mxGeometry x="-0.047" y="1" relative="1" as="geometry">
            <mxPoint x="19" y="-7" as="offset" />
          </mxGeometry>
        </mxCell>
        <mxCell id="l3XtTcIofVnENhLU9X-6-82" value="confirmDataSaved()" style="html=1;verticalAlign=bottom;endArrow=open;dashed=1;endSize=8;curved=0;rounded=0;" edge="1" parent="1">
          <mxGeometry relative="1" as="geometry">
            <mxPoint x="1405" y="906" as="sourcePoint" />
            <mxPoint x="745.5" y="906" as="targetPoint" />
          </mxGeometry>
        </mxCell>
        <mxCell id="l3XtTcIofVnENhLU9X-6-83" value="&lt;b&gt;alt&lt;/b&gt;" style="shape=umlFrame;whiteSpace=wrap;html=1;pointerEvents=0;" vertex="1" parent="1">
          <mxGeometry x="50" y="870" width="1390" height="140" as="geometry" />
        </mxCell>
        <mxCell id="l3XtTcIofVnENhLU9X-6-84" value="attendanceCompleted()" style="html=1;verticalAlign=bottom;endArrow=open;dashed=1;endSize=8;curved=0;rounded=0;" edge="1" parent="1" target="l3XtTcIofVnENhLU9X-6-73">
          <mxGeometry relative="1" as="geometry">
            <mxPoint x="734" y="907" as="sourcePoint" />
            <mxPoint x="84" y="907" as="targetPoint" />
          </mxGeometry>
        </mxCell>
        <mxCell id="l3XtTcIofVnENhLU9X-6-86" value="showAttendanceSuccess()" style="html=1;verticalAlign=bottom;endArrow=open;dashed=1;endSize=8;curved=0;rounded=0;" edge="1" parent="1">
          <mxGeometry relative="1" as="geometry">
            <mxPoint x="534" y="909" as="sourcePoint" />
            <mxPoint x="345" y="909" as="targetPoint" />
          </mxGeometry>
        </mxCell>
        <mxCell id="l3XtTcIofVnENhLU9X-6-89" value="saveFailed()" style="html=1;verticalAlign=bottom;endArrow=open;dashed=1;endSize=8;curved=0;rounded=0;" edge="1" parent="1">
          <mxGeometry relative="1" as="geometry">
            <mxPoint x="1404.5" y="960" as="sourcePoint" />
            <mxPoint x="745" y="960" as="targetPoint" />
          </mxGeometry>
        </mxCell>
        <mxCell id="l3XtTcIofVnENhLU9X-6-90" value="attendanceSaveError()" style="html=1;verticalAlign=bottom;endArrow=open;dashed=1;endSize=8;curved=0;rounded=0;" edge="1" parent="1">
          <mxGeometry relative="1" as="geometry">
            <mxPoint x="732.5" y="960" as="sourcePoint" />
            <mxPoint x="543.5" y="960" as="targetPoint" />
          </mxGeometry>
        </mxCell>
        <mxCell id="l3XtTcIofVnENhLU9X-6-91" value="showAttendanceFailure()" style="html=1;verticalAlign=bottom;endArrow=open;dashed=1;endSize=8;curved=0;rounded=0;" edge="1" parent="1">
          <mxGeometry relative="1" as="geometry">
            <mxPoint x="534" y="960" as="sourcePoint" />
            <mxPoint x="345" y="960" as="targetPoint" />
          </mxGeometry>
        </mxCell>
        <mxCell id="l3XtTcIofVnENhLU9X-6-92" value="" style="html=1;verticalAlign=bottom;endArrow=none;dashed=1;endSize=8;curved=0;rounded=0;startFill=0;" edge="1" parent="1">
          <mxGeometry relative="1" as="geometry">
            <mxPoint x="1440" y="936" as="sourcePoint" />
            <mxPoint x="49" y="936" as="targetPoint" />
          </mxGeometry>
        </mxCell>
        <mxCell id="l3XtTcIofVnENhLU9X-6-93" value="&lt;b&gt;opt&lt;/b&gt;" style="shape=umlFrame;whiteSpace=wrap;html=1;pointerEvents=0;" vertex="1" parent="1">
          <mxGeometry x="240" y="1050" width="1040" height="90" as="geometry" />
        </mxCell>
        <mxCell id="l3XtTcIofVnENhLU9X-6-94" value="" style="html=1;points=[[0,0,0,0,5],[0,1,0,0,-5],[1,0,0,0,5],[1,1,0,0,-5]];perimeter=orthogonalPerimeter;outlineConnect=0;targetShapes=umlLifeline;portConstraint=eastwest;newEdgeStyle={&quot;curved&quot;:0,&quot;rounded&quot;:0};" vertex="1" parent="1">
          <mxGeometry x="1180" y="1091" width="10" height="30" as="geometry" />
        </mxCell>
        <mxCell id="l3XtTcIofVnENhLU9X-6-95" value="" style="html=1;points=[[0,0,0,0,5],[0,1,0,0,-5],[1,0,0,0,5],[1,1,0,0,-5]];perimeter=orthogonalPerimeter;outlineConnect=0;targetShapes=umlLifeline;portConstraint=eastwest;newEdgeStyle={&quot;curved&quot;:0,&quot;rounded&quot;:0};" vertex="1" parent="1">
          <mxGeometry x="535" y="1091" width="10" height="30" as="geometry" />
        </mxCell>
        <mxCell id="l3XtTcIofVnENhLU9X-6-96" value="" style="html=1;points=[[0,0,0,0,5],[0,1,0,0,-5],[1,0,0,0,5],[1,1,0,0,-5]];perimeter=orthogonalPerimeter;outlineConnect=0;targetShapes=umlLifeline;portConstraint=eastwest;newEdgeStyle={&quot;curved&quot;:0,&quot;rounded&quot;:0};" vertex="1" parent="1">
          <mxGeometry x="335" y="1091" width="10" height="30" as="geometry" />
        </mxCell>
        <mxCell id="l3XtTcIofVnENhLU9X-6-97" value="" style="edgeStyle=elbowEdgeStyle;fontSize=12;html=1;endArrow=none;endFill=1;rounded=0;startFill=1;startArrow=blockThin;" edge="1" parent="1">
          <mxGeometry width="160" relative="1" as="geometry">
            <mxPoint x="545" y="1094" as="sourcePoint" />
            <mxPoint x="1180" y="1094" as="targetPoint" />
            <Array as="points">
              <mxPoint x="1180" y="1094" />
              <mxPoint x="1175" y="1094" />
            </Array>
          </mxGeometry>
        </mxCell>
        <mxCell id="l3XtTcIofVnENhLU9X-6-99" value="" style="edgeStyle=elbowEdgeStyle;fontSize=12;html=1;endArrow=none;endFill=1;rounded=0;startFill=1;startArrow=blockThin;exitX=1;exitY=0;exitDx=0;exitDy=5;exitPerimeter=0;" edge="1" parent="1">
          <mxGeometry width="160" relative="1" as="geometry">
            <mxPoint x="345" y="1094" as="sourcePoint" />
            <mxPoint x="535" y="1091" as="targetPoint" />
            <Array as="points">
              <mxPoint x="535" y="1091" />
              <mxPoint x="530" y="1091" />
            </Array>
          </mxGeometry>
        </mxCell>
        <mxCell id="l3XtTcIofVnENhLU9X-6-100" value="showGPSError()" style="edgeLabel;html=1;align=center;verticalAlign=middle;resizable=0;points=[];" vertex="1" connectable="0" parent="l3XtTcIofVnENhLU9X-6-99">
          <mxGeometry x="-0.0059" y="-1" relative="1" as="geometry">
            <mxPoint x="-1" y="-10" as="offset" />
          </mxGeometry>
        </mxCell>
        <mxCell id="l3XtTcIofVnENhLU9X-6-101" value="gpsUnavailable()" style="edgeLabel;html=1;align=center;verticalAlign=middle;resizable=0;points=[];" vertex="1" connectable="0" parent="1">
          <mxGeometry x="850.0036363636362" y="1084.9999999999998" as="geometry" />
        </mxCell>
        <mxCell id="l3XtTcIofVnENhLU9X-6-102" value="&lt;b&gt;opt&lt;/b&gt;" style="shape=umlFrame;whiteSpace=wrap;html=1;pointerEvents=0;" vertex="1" parent="1">
          <mxGeometry x="240" y="1190" width="390" height="100" as="geometry" />
        </mxCell>
        <mxCell id="l3XtTcIofVnENhLU9X-6-104" value="" style="html=1;points=[[0,0,0,0,5],[0,1,0,0,-5],[1,0,0,0,5],[1,1,0,0,-5]];perimeter=orthogonalPerimeter;outlineConnect=0;targetShapes=umlLifeline;portConstraint=eastwest;newEdgeStyle={&quot;curved&quot;:0,&quot;rounded&quot;:0};" vertex="1" parent="1">
          <mxGeometry x="535" y="1231" width="10" height="30" as="geometry" />
        </mxCell>
        <mxCell id="l3XtTcIofVnENhLU9X-6-105" value="" style="html=1;points=[[0,0,0,0,5],[0,1,0,0,-5],[1,0,0,0,5],[1,1,0,0,-5]];perimeter=orthogonalPerimeter;outlineConnect=0;targetShapes=umlLifeline;portConstraint=eastwest;newEdgeStyle={&quot;curved&quot;:0,&quot;rounded&quot;:0};" vertex="1" parent="1">
          <mxGeometry x="335" y="1231" width="10" height="30" as="geometry" />
        </mxCell>
        <mxCell id="l3XtTcIofVnENhLU9X-6-119" value="" style="edgeStyle=elbowEdgeStyle;fontSize=12;html=1;endArrow=blockThin;endFill=1;rounded=0;" edge="1" parent="1">
          <mxGeometry width="160" relative="1" as="geometry">
            <mxPoint x="345" y="1234.38" as="sourcePoint" />
            <mxPoint x="535" y="1234.38" as="targetPoint" />
            <Array as="points">
              <mxPoint x="460" y="1234.38" />
            </Array>
          </mxGeometry>
        </mxCell>
        <mxCell id="l3XtTcIofVnENhLU9X-6-121" value="uploadFailed()" style="edgeLabel;html=1;align=center;verticalAlign=middle;resizable=0;points=[];" vertex="1" connectable="0" parent="l3XtTcIofVnENhLU9X-6-119">
          <mxGeometry x="-0.1596" y="-1" relative="1" as="geometry">
            <mxPoint x="15" y="-10" as="offset" />
          </mxGeometry>
        </mxCell>
        <mxCell id="l3XtTcIofVnENhLU9X-6-120" value="" style="html=1;verticalAlign=bottom;endArrow=open;dashed=1;endSize=8;curved=0;rounded=0;" edge="1" parent="1">
          <mxGeometry relative="1" as="geometry">
            <mxPoint x="535" y="1257.17" as="sourcePoint" />
            <mxPoint x="345" y="1257.17" as="targetPoint" />
          </mxGeometry>
        </mxCell>
        <mxCell id="l3XtTcIofVnENhLU9X-6-122" value="showUploadRetryMessage()" style="edgeLabel;html=1;align=center;verticalAlign=middle;resizable=0;points=[];" vertex="1" connectable="0" parent="1">
          <mxGeometry x="440" y="1267" as="geometry" />
        </mxCell>
        <mxCell id="l3XtTcIofVnENhLU9X-6-123" value="&lt;b&gt;opt&lt;/b&gt;" style="shape=umlFrame;whiteSpace=wrap;html=1;pointerEvents=0;" vertex="1" parent="1">
          <mxGeometry x="240" y="1330" width="390" height="100" as="geometry" />
        </mxCell>
        <mxCell id="l3XtTcIofVnENhLU9X-6-124" value="" style="html=1;points=[[0,0,0,0,5],[0,1,0,0,-5],[1,0,0,0,5],[1,1,0,0,-5]];perimeter=orthogonalPerimeter;outlineConnect=0;targetShapes=umlLifeline;portConstraint=eastwest;newEdgeStyle={&quot;curved&quot;:0,&quot;rounded&quot;:0};" vertex="1" parent="1">
          <mxGeometry x="535" y="1371" width="10" height="30" as="geometry" />
        </mxCell>
        <mxCell id="l3XtTcIofVnENhLU9X-6-125" value="" style="html=1;points=[[0,0,0,0,5],[0,1,0,0,-5],[1,0,0,0,5],[1,1,0,0,-5]];perimeter=orthogonalPerimeter;outlineConnect=0;targetShapes=umlLifeline;portConstraint=eastwest;newEdgeStyle={&quot;curved&quot;:0,&quot;rounded&quot;:0};" vertex="1" parent="1">
          <mxGeometry x="335" y="1371" width="10" height="30" as="geometry" />
        </mxCell>
        <mxCell id="l3XtTcIofVnENhLU9X-6-126" value="" style="edgeStyle=elbowEdgeStyle;fontSize=12;html=1;endArrow=blockThin;endFill=1;rounded=0;" edge="1" parent="1">
          <mxGeometry width="160" relative="1" as="geometry">
            <mxPoint x="345" y="1374.38" as="sourcePoint" />
            <mxPoint x="535" y="1374.38" as="targetPoint" />
            <Array as="points">
              <mxPoint x="460" y="1374.38" />
            </Array>
          </mxGeometry>
        </mxCell>
        <mxCell id="l3XtTcIofVnENhLU9X-6-127" value="cameraAccessDenied" style="edgeLabel;html=1;align=center;verticalAlign=middle;resizable=0;points=[];" vertex="1" connectable="0" parent="l3XtTcIofVnENhLU9X-6-126">
          <mxGeometry x="-0.1596" y="-1" relative="1" as="geometry">
            <mxPoint x="15" y="-10" as="offset" />
          </mxGeometry>
        </mxCell>
        <mxCell id="l3XtTcIofVnENhLU9X-6-128" value="" style="html=1;verticalAlign=bottom;endArrow=open;dashed=1;endSize=8;curved=0;rounded=0;" edge="1" parent="1">
          <mxGeometry relative="1" as="geometry">
            <mxPoint x="535" y="1397.17" as="sourcePoint" />
            <mxPoint x="345" y="1397.17" as="targetPoint" />
          </mxGeometry>
        </mxCell>
        <mxCell id="l3XtTcIofVnENhLU9X-6-129" value="showCameraPermissionMessage()" style="edgeLabel;html=1;align=center;verticalAlign=middle;resizable=0;points=[];" vertex="1" connectable="0" parent="1">
          <mxGeometry x="440" y="1407" as="geometry" />
        </mxCell>
      </root>
    </mxGraphModel>
  </diagram>
</mxfile>
